<?xml version="1.0" encoding="utf-8"?>
<!-- Generator: Adobe Illustrator 24.0.1, SVG Export Plug-In . SVG Version: 6.00 Build 0)  -->
<svg version="1.1" id="Layer_1" xmlns="http://www.w3.org/2000/svg" xmlns:xlink="http://www.w3.org/1999/xlink" x="0px" y="0px"
	 viewBox="0 0 95.81 95.79" style="enable-background:new 0 0 95.81 95.79;" xml:space="preserve">
<style type="text/css">
	.st0{fill:#76C6E5;}
	.st1{fill:#F9BC35;}
	.st2{fill:#5291CE;}
	.st3{fill:#0D1821;}
</style>
<g id="iconCOLOR">
	<path id="sky_4_" class="st0" d="M95.75,50.08c0.14-2.92,0-5.81-0.39-8.64l-13.69,1.95l-0.23-1.61l13.67-1.95
		c-0.48-2.82-1.22-5.58-2.18-8.24l-12.36,7.31l-0.83-1.41l12.6-7.45c-1.18-2.93-2.65-5.74-4.37-8.37l-10.14,13.5l-1.31-0.99
		L87,20.23c-2.22-3.13-4.8-6-7.73-8.53l-5.41,21.05l-1.58-0.41l5.6-21.81c-3.76-3.02-8.02-5.51-12.69-7.31l4.1,28.82l-1.62,0.23
		L63.45,2.59c-1.29-0.44-2.61-0.83-3.96-1.16C54.7,0.24,49.9-0.19,45.22,0.08l19.56,33.08l-1.41,0.84L43.41,0.21
		c-7.4,0.69-14.45,3.11-20.65,6.94l38.3,28.75l-0.98,1.31L21.29,8.09C14.6,12.56,9.02,18.72,5.24,26.15l53.41,13.72l-0.41,1.58
		L4.51,27.65c-1.27,2.74-2.31,5.64-3.07,8.68c-0.08,0.32-0.16,0.64-0.23,0.96v0.01c5.41-1.73,12.45-2.73,20.2-1.19
		c4.14,0.79,7.87,2.5,11.49,4.81c2.92,1.86,6.82,5.73,7.17,6.08l17.86-2.54l0.24,1.61L41.5,48.44c0.44,0.46,5.61,6.01,6.6,6.99
		l10.97-6.48l0.83,1.41l-10.6,6.27c1.36,1.47,4.75,4.15,5.92,4.84l6.59-8.78l1.31,0.98l-6.51,8.67c0.01,0.01,0.02,0.01,0.03,0.02
		c1.48,1.1,5.88,2.67,6.56,2.76l2.58-10.03l1.58,0.41l-2.57,10c0.34,0.07,0.68,0.14,1.03,0.2c1.76,0.3,3.76,0.49,6.01,0.42
		l-1.47-10.33l1.61-0.23l1.49,10.46c2.99-0.22,6.53-1.15,7.24-1.44l-5.85-9.9l1.41-0.84l6.03,10.2c2.05-0.55,7.18-3.18,7.66-3.58
		l-11.36-8.54l0.98-1.31l11.9,8.94c0.39-0.22,3.1-1.97,3.39-2.22c0.38-1.87,0.64-3.75,0.79-5.61l-14.66-3.76l0.41-1.58L95.75,50.08z
		 M79.3,46.27c-1.1,4.27-4.96,7.1-9.18,7.1c-0.79,0-1.59-0.1-2.39-0.31c-2.45-0.63-4.51-2.19-5.79-4.37c-1.29-2.18-1.64-4.74-1-7.19
		c0.63-2.45,2.19-4.51,4.37-5.79c2.18-1.29,4.74-1.64,7.19-1.01C77.57,36.02,80.62,41.21,79.3,46.27z"/>
	<path id="sun_4_" class="st1" d="M72.1,36.28c-0.66-0.17-1.33-0.25-1.99-0.25c-1.38,0-2.74,0.37-3.96,1.09
		c-1.81,1.07-3.1,2.76-3.62,4.8c-0.53,2.03-0.24,4.14,0.82,5.95c1.07,1.81,2.76,3.1,4.8,3.62c4.19,1.09,8.48-1.43,9.57-5.62
		C78.81,41.67,76.29,37.37,72.1,36.28z"/>
	<path id="water_4_" class="st2" d="M86.94,68.77c-1.82,0.95-3.62,1.9-5.55,2.61c-8.77,3.21-17.33,3.62-26.26-1.12
		c-4.94-2.62-8.76-6.79-12.13-10.46c-2.43-2.65-4.93-5.26-7.58-7.68c-5.03-4.6-10.26-7.35-16.3-8.39c-6.35-1.09-12.82-0.8-19,1.03
		c-0.02,0.39-0.04,0.77-0.06,1.16c-0.7,13.76,5.14,27.66,15.19,37.03c6.49,6.05,14.74,10.36,23.5,11.93
		c15.22,2.73,28.01-0.82,38.92-9.47c2.86-2.27,5.46-4.87,7.74-7.73c1.46-1.84,2.78-3.78,3.95-5.8c1.03-1.77,2.37-4.3,3.16-6.52
		C91.12,66.31,88.65,67.88,86.94,68.77z M35.31,68.07c-0.78,2.61-2.14,4.8-4,6.33c-2.39,1.96-5.56,2.67-8.6,2.53
		C12.06,76.42,5.99,66.47,3.48,56.73c-0.6-2.34-1.14-6.75-1.35-10.14c2.62-0.58,6.93-0.89,7.65-0.88
		c8.45,0.09,13.11,2.32,18.37,5.99C33.92,55.71,36.99,62.49,35.31,68.07z"/>
	<path id="head_4_" class="st2" d="M26.01,56.89c-4.65-1.16-9.35,1.67-10.51,6.31c-1.16,4.64,1.67,9.35,6.33,10.5
		c4.64,1.16,9.35-1.67,10.5-6.31C33.49,62.75,30.66,58.05,26.01,56.89z"/>
</g>
</svg>
