<?xml version="1.0" encoding="utf-8"?>
<!-- Generator: Adobe Illustrator 24.0.1, SVG Export Plug-In . SVG Version: 6.00 Build 0)  -->
<svg version="1.1" id="Layer_1" xmlns="http://www.w3.org/2000/svg" xmlns:xlink="http://www.w3.org/1999/xlink" x="0px" y="0px"
	 viewBox="0 0 267.73 95.79" style="enable-background:new 0 0 267.73 95.79;" xml:space="preserve">
<style type="text/css">
	.st0{fill:#76C6E5;}
	.st1{fill:#F9BC35;}
	.st2{fill:#5291CE;}
	.st3{fill:#0D1821;}
</style>
<g id="logoCOLOR2">
	<g id="text_2_">
		<g id="RELAX_2_">
			<path class="st2" d="M138.05,79.09c-0.48-0.69-1.03-1.42-1.64-2.21c-0.61-0.79-1.27-1.62-1.97-2.48s-1.39-1.76-2.07-2.7
				c1.76-1.04,3.17-2.36,4.23-3.96c1.06-1.6,1.59-3.42,1.59-5.47c0-3.52-1.26-6.33-3.77-8.43c-2.52-2.1-6.25-3.15-11.21-3.15
				c-1.83,0-3.56,0.1-5.18,0.29c-1.61,0.2-3.03,0.52-4.25,0.95c-0.72,0.25-1.29,0.58-1.7,0.99c-0.41,0.42-0.62,1-0.62,1.76v25.54
				c0,1.69,0.37,2.85,1.11,3.5c0.73,0.65,2.05,0.97,3.96,0.97c0.86,0,1.7-0.05,2.53-0.16c0.82-0.11,1.43-0.22,1.83-0.32V73.7h2.86
				l4.58,7.38c0.32,0.54,0.66,1.04,1.02,1.51c0.36,0.47,0.76,0.86,1.19,1.18c0.43,0.33,0.93,0.58,1.5,0.76
				c0.58,0.18,1.26,0.27,2.05,0.27c1.19,0,2.26-0.33,3.21-1c0.95-0.66,1.61-1.62,1.97-2.88C138.94,80.38,138.54,79.77,138.05,79.09z
				 M127.19,65.48c-0.96,0.7-2.2,1.05-3.71,1.05h-2.7v-8.08c0.4-0.07,0.78-0.13,1.16-0.16c0.38-0.04,0.78-0.06,1.21-0.06
				c1.91,0,3.3,0.35,4.18,1.05c0.88,0.7,1.32,1.74,1.32,3.1C128.65,63.75,128.17,64.78,127.19,65.48z"/>
			<path class="st2" d="M167.96,78.55c-0.2-0.65-0.42-1.17-0.67-1.57h-13.85v-5.65h9.86c1,0,1.79-0.3,2.37-0.89
				c0.57-0.6,0.86-1.56,0.86-2.89c0-0.75-0.1-1.43-0.29-2.04c-0.2-0.61-0.43-1.12-0.68-1.51h-12.12v-5.01h11.37
				c1,0,1.79-0.31,2.37-0.92c0.57-0.61,0.86-1.58,0.86-2.91c0-0.75-0.1-1.44-0.3-2.05c-0.19-0.61-0.42-1.11-0.67-1.51h-17.78
				c-1.55,0-2.77,0.45-3.67,1.35c-0.89,0.9-1.34,2.12-1.34,3.67v22.79c0,1.54,0.45,2.77,1.34,3.66c0.9,0.9,2.12,1.35,3.67,1.35
				h15.73c1.01,0,1.8-0.3,2.37-0.89c0.58-0.59,0.87-1.55,0.87-2.88C168.26,79.89,168.16,79.19,167.96,78.55z"/>
			<path class="st2" d="M196.28,78.39c-0.22-0.65-0.45-1.17-0.71-1.57h-12.33V55.48c0-1.76-0.4-2.94-1.19-3.55
				c-0.79-0.61-2.08-0.92-3.88-0.92c-0.83,0-1.65,0.06-2.48,0.19c-0.83,0.13-1.45,0.23-1.89,0.3v27.91c0,1.54,0.45,2.77,1.35,3.66
				c0.9,0.9,2.12,1.35,3.67,1.35h14.55c1,0,1.79-0.32,2.37-0.97c0.57-0.65,0.86-1.63,0.86-2.96
				C196.6,79.73,196.49,79.03,196.28,78.39z"/>
			<path class="st2" d="M229.47,76.31c-0.72-2.57-1.46-5.17-2.21-7.81c-0.76-2.64-1.51-5.2-2.26-7.68
				c-0.76-2.48-1.46-4.63-2.11-6.47c-0.39-1.15-1.28-1.98-2.66-2.5c-1.39-0.52-2.98-0.78-4.77-0.78c-1.26,0-2.51,0.16-3.75,0.48
				s-2.16,0.67-2.77,1.02c-0.25,0.65-0.6,1.59-1.05,2.83s-0.95,2.64-1.49,4.21c-0.53,1.56-1.11,3.21-1.72,4.95
				c-0.61,1.75-1.18,3.45-1.72,5.12c-0.54,1.67-1.04,3.24-1.49,4.69c-0.45,1.46-0.8,2.67-1.05,3.64c-0.18,0.68-0.34,1.27-0.48,1.78
				c-0.15,0.5-0.22,1-0.22,1.51c0,1.11,0.44,1.98,1.32,2.61s2.24,0.94,4.07,0.94c0.79,0,1.46-0.06,2.02-0.19
				c0.56-0.12,1.09-0.28,1.59-0.45c0.25-0.97,0.51-2.02,0.78-3.13c0.27-1.11,0.59-2.32,0.95-3.61h9.75l0.97,3.72
				c0.32,1.26,0.83,2.17,1.51,2.75c0.68,0.57,1.9,0.86,3.66,0.86c1.19,0,2.21-0.16,3.07-0.46c0.87-0.31,1.51-0.71,1.94-1.21
				C230.81,81.15,230.19,78.88,229.47,76.31z M211.95,70.2c0.58-2.05,1.17-3.97,1.78-5.77c0.61-1.8,1.17-3.43,1.67-4.9h0.33
				c0.39,1.43,0.85,3.06,1.37,4.87c0.52,1.82,1.03,3.75,1.54,5.8H211.95z"/>
			<path class="st2" d="M255.12,67.77c0.93-1.11,1.83-2.23,2.69-3.34c0.86-1.11,1.76-2.25,2.7-3.4c0.89-1.11,1.6-2.06,2.12-2.85
				c0.52-0.79,0.79-1.69,0.79-2.7c0-1.14-0.46-2.12-1.38-2.91c-0.91-0.79-2.18-1.18-3.8-1.18c-0.54,0-1.06,0.04-1.56,0.13
				c-0.5,0.09-0.9,0.19-1.19,0.3l-6.25,9.38l-4.2-6.47c-0.83-1.26-1.63-2.15-2.42-2.67c-0.79-0.52-1.71-0.78-2.75-0.78
				c-0.79,0-1.51,0.14-2.16,0.41c-0.64,0.26-1.21,0.61-1.7,1.02c-0.48,0.41-0.88,0.87-1.21,1.37c-0.32,0.51-0.57,1.01-0.75,1.51
				l8.57,12.13l-5.66,7.22c-0.83,1.04-1.47,1.95-1.91,2.72c-0.45,0.77-0.68,1.68-0.68,2.72c0,1.22,0.49,2.24,1.46,3.07
				c0.97,0.83,2.47,1.24,4.52,1.24c0.25,0,0.5-0.01,0.76-0.03c0.25-0.02,0.52-0.04,0.81-0.08l6.84-10.34l4.58,7
				c0.83,1.26,1.61,2.15,2.34,2.67c0.74,0.52,1.63,0.78,2.67,0.78c1.62,0,2.9-0.39,3.85-1.16s1.57-1.82,1.86-3.15L255.12,67.77z"/>
		</g>
		<g id="SPORT_2_">
			<path class="st2" d="M133.31,28.37c-1.81-1.71-4.41-3.1-7.79-4.18l-2.85-0.92c-0.94-0.28-1.64-0.6-2.1-0.94
				c-0.47-0.34-0.7-0.78-0.7-1.32c0-0.68,0.37-1.25,1.13-1.7c0.75-0.44,1.94-0.67,3.55-0.67c1.59,0,3.04,0.19,4.37,0.57
				c1.33,0.37,2.39,0.81,3.18,1.32c0.61-0.47,1.13-1.04,1.56-1.7c0.43-0.66,0.65-1.46,0.65-2.4c0-0.93-0.27-1.75-0.81-2.45
				s-1.29-1.27-2.24-1.72c-0.95-0.45-2.09-0.79-3.42-1c-1.33-0.22-2.76-0.32-4.31-0.32c-4.24,0-7.53,0.91-9.89,2.74
				c-2.35,1.84-3.53,4.28-3.53,7.33c0,1.58,0.26,2.92,0.78,4.02c0.53,1.09,1.25,2.04,2.19,2.83c0.93,0.79,2.05,1.46,3.34,2.02
				c1.29,0.55,2.73,1.1,4.31,1.64l2.26,0.75c1.04,0.36,1.85,0.75,2.43,1.16c0.57,0.42,0.86,0.98,0.86,1.7
				c0,0.72-0.36,1.37-1.08,1.94c-0.72,0.57-1.96,0.86-3.72,0.86c-1.72,0-3.31-0.29-4.77-0.86c-1.45-0.57-2.68-1.26-3.69-2.05
				c-0.72,0.4-1.38,0.96-1.99,1.7c-0.61,0.74-0.92,1.63-0.92,2.67c0,1,0.3,1.89,0.89,2.66c0.6,0.78,1.42,1.42,2.48,1.94
				c1.06,0.53,2.3,0.92,3.72,1.19c1.42,0.27,2.95,0.4,4.61,0.4c2.3,0,4.33-0.25,6.11-0.75c1.78-0.5,3.27-1.21,4.47-2.13
				c1.21-0.92,2.11-2.01,2.73-3.29c0.61-1.27,0.91-2.66,0.91-4.17C136.03,32.36,135.13,30.07,133.31,28.37z"/>
			<path class="st2" d="M163.73,14.22c-2.62-2.12-6.41-3.18-11.37-3.18c-1.37,0-2.88,0.1-4.55,0.3s-3.12,0.51-4.34,0.94
				c-0.72,0.25-1.29,0.59-1.7,1c-0.41,0.41-0.62,1-0.62,1.75v25.54c0,1.69,0.37,2.86,1.11,3.51c0.73,0.64,2.05,0.96,3.96,0.96
				c0.86,0,1.7-0.05,2.53-0.16c0.83-0.1,1.44-0.21,1.83-0.32V34.48h3.13c2.12,0,4.04-0.27,5.76-0.83c1.73-0.56,3.19-1.35,4.39-2.37
				c1.21-1.03,2.14-2.25,2.81-3.67c0.66-1.42,0.99-3.01,0.99-4.77C167.66,19.22,166.35,16.34,163.73,14.22z M156.72,26
				c-0.89,0.73-2.1,1.1-3.61,1.1h-2.58v-8.35c0.39-0.07,0.78-0.12,1.16-0.14c0.37-0.01,0.85-0.02,1.42-0.02
				c1.62,0,2.85,0.37,3.7,1.1c0.84,0.74,1.26,1.79,1.26,3.15C158.07,24.21,157.62,25.26,156.72,26z"/>
			<path class="st2" d="M203.63,20.8c-0.88-2.16-2.09-3.96-3.64-5.42c-1.54-1.45-3.35-2.56-5.41-3.31c-2.07-0.76-4.3-1.13-6.71-1.13
				c-2.41,0-4.64,0.37-6.71,1.13c-2.07,0.75-3.86,1.86-5.39,3.31c-1.53,1.46-2.73,3.26-3.61,5.42c-0.88,2.15-1.32,4.63-1.32,7.43
				s0.43,5.28,1.29,7.44c0.87,2.15,2.05,3.97,3.56,5.44c1.51,1.47,3.31,2.59,5.39,3.34c2.08,0.76,4.35,1.13,6.79,1.13
				s4.7-0.37,6.79-1.13c2.08-0.75,3.89-1.86,5.41-3.31c1.53-1.46,2.73-3.27,3.59-5.44c0.86-2.18,1.29-4.67,1.29-7.47
				S204.51,22.95,203.63,20.8z M193.26,35.56c-1.33,1.62-3.11,2.43-5.34,2.43c-2.26,0-4.06-0.81-5.39-2.43
				c-1.32-1.62-1.99-4.06-1.99-7.33s0.67-5.7,2.02-7.3c1.35-1.6,3.12-2.4,5.31-2.4c2.26,0,4.06,0.81,5.39,2.43
				c1.33,1.61,1.99,4.04,1.99,7.27C195.25,31.5,194.59,33.94,193.26,35.56z"/>
			<path class="st2" d="M236.93,39.44c-0.48-0.68-1.03-1.42-1.64-2.21c-0.61-0.79-1.27-1.62-1.97-2.48
				c-0.7-0.86-1.39-1.76-2.07-2.69c1.76-1.04,3.17-2.36,4.23-3.96s1.59-3.42,1.59-5.47c0-3.52-1.26-6.33-3.78-8.43
				c-2.51-2.11-6.25-3.16-11.2-3.16c-1.84,0-3.56,0.1-5.18,0.3c-1.61,0.2-3.03,0.51-4.25,0.94c-0.72,0.25-1.29,0.59-1.7,1
				c-0.41,0.41-0.62,1-0.62,1.75v25.54c0,1.69,0.37,2.86,1.1,3.51c0.74,0.64,2.06,0.96,3.96,0.96c0.87,0,1.71-0.05,2.54-0.16
				c0.82-0.1,1.43-0.21,1.83-0.32V34.05h2.86l4.58,7.38c0.32,0.54,0.66,1.05,1.02,1.51c0.36,0.47,0.75,0.87,1.18,1.19
				c0.44,0.32,0.94,0.57,1.51,0.75c0.58,0.18,1.26,0.27,2.05,0.27c1.19,0,2.26-0.33,3.21-0.99c0.95-0.67,1.6-1.63,1.96-2.89
				C237.82,40.73,237.42,40.12,236.93,39.44z M226.07,25.83c-0.97,0.71-2.21,1.06-3.71,1.06h-2.7V18.8c0.4-0.07,0.78-0.12,1.16-0.16
				c0.38-0.03,0.78-0.05,1.21-0.05c1.91,0,3.3,0.35,4.18,1.05c0.88,0.7,1.32,1.73,1.32,3.1C227.53,24.1,227.04,25.13,226.07,25.83z"
				/>
			<path class="st2" d="M267.43,13.52c-0.2-0.64-0.42-1.17-0.67-1.56H243.1c-1,0-1.8,0.3-2.4,0.92c-0.59,0.61-0.89,1.59-0.89,2.96
				c0,0.75,0.1,1.45,0.3,2.1c0.2,0.65,0.42,1.17,0.67,1.56h8.14v21.07c0,1.69,0.37,2.86,1.11,3.51c0.73,0.64,2.05,0.96,3.96,0.96
				c0.86,0,1.7-0.05,2.53-0.16c0.83-0.1,1.44-0.21,1.83-0.32V19.5h6.09c1.01,0,1.81-0.3,2.4-0.91c0.59-0.61,0.89-1.6,0.89-2.97
				C267.73,14.87,267.63,14.17,267.43,13.52z"/>
		</g>
	</g>
	<g id="icon_2_">
		<path id="sky_2_" class="st0" d="M95.75,50.08c0.14-2.92,0-5.81-0.39-8.64l-13.69,1.95l-0.23-1.61l13.67-1.95
			c-0.48-2.82-1.22-5.58-2.18-8.24l-12.36,7.31l-0.83-1.41l12.6-7.45c-1.18-2.93-2.65-5.74-4.37-8.37l-10.14,13.5l-1.31-0.99
			L87,20.23c-2.22-3.13-4.8-6-7.73-8.53l-5.41,21.05l-1.58-0.41l5.6-21.81c-3.76-3.02-8.02-5.51-12.69-7.31l4.1,28.82l-1.62,0.23
			L63.45,2.59c-1.29-0.44-2.61-0.83-3.96-1.16C54.7,0.24,49.9-0.19,45.22,0.08l19.56,33.08l-1.41,0.84L43.41,0.21
			c-7.4,0.69-14.45,3.11-20.65,6.94l38.3,28.75l-0.98,1.31L21.29,8.09C14.6,12.56,9.02,18.72,5.24,26.15l53.41,13.72l-0.41,1.58
			L4.51,27.65c-1.27,2.74-2.31,5.64-3.07,8.68c-0.08,0.32-0.16,0.64-0.23,0.96v0.01c5.41-1.73,12.45-2.73,20.2-1.19
			c4.14,0.79,7.87,2.5,11.49,4.81c2.92,1.86,6.82,5.73,7.17,6.08l17.86-2.54l0.24,1.61L41.5,48.44c0.44,0.46,5.61,6.01,6.6,6.99
			l10.97-6.48l0.83,1.41l-10.6,6.27c1.36,1.47,4.75,4.15,5.92,4.84l6.59-8.78l1.31,0.98l-6.51,8.67c0.01,0.01,0.02,0.01,0.03,0.02
			c1.48,1.1,5.88,2.67,6.56,2.76l2.58-10.03l1.58,0.41l-2.57,10c0.34,0.07,0.68,0.14,1.03,0.2c1.76,0.3,3.76,0.49,6.01,0.42
			l-1.47-10.33l1.61-0.23l1.49,10.46c2.99-0.22,6.53-1.15,7.24-1.44l-5.85-9.9l1.41-0.84l6.03,10.2c2.05-0.55,7.18-3.18,7.66-3.58
			l-11.36-8.54l0.98-1.31l11.9,8.94c0.39-0.22,3.1-1.97,3.39-2.22c0.38-1.87,0.64-3.75,0.79-5.61l-14.66-3.76l0.41-1.58L95.75,50.08
			z M79.3,46.27c-1.1,4.27-4.96,7.1-9.18,7.1c-0.79,0-1.59-0.1-2.39-0.31c-2.45-0.63-4.51-2.19-5.79-4.37
			c-1.29-2.18-1.64-4.74-1-7.19c0.63-2.45,2.19-4.51,4.37-5.79c2.18-1.29,4.74-1.64,7.19-1.01C77.57,36.02,80.62,41.21,79.3,46.27z"
			/>
		<path id="sun_2_" class="st1" d="M72.1,36.28c-0.66-0.17-1.33-0.25-1.99-0.25c-1.38,0-2.74,0.37-3.96,1.09
			c-1.81,1.07-3.1,2.76-3.62,4.8c-0.53,2.03-0.24,4.14,0.82,5.95c1.07,1.81,2.76,3.1,4.8,3.62c4.19,1.09,8.48-1.43,9.57-5.62
			C78.81,41.67,76.29,37.37,72.1,36.28z"/>
		<path id="water_2_" class="st2" d="M86.94,68.77c-1.82,0.95-3.62,1.9-5.55,2.61c-8.77,3.21-17.33,3.62-26.26-1.12
			c-4.94-2.62-8.76-6.79-12.13-10.46c-2.43-2.65-4.93-5.26-7.58-7.68c-5.03-4.6-10.26-7.35-16.3-8.39c-6.35-1.09-12.82-0.8-19,1.03
			c-0.02,0.39-0.04,0.77-0.06,1.16c-0.7,13.76,5.14,27.66,15.19,37.03c6.49,6.05,14.74,10.36,23.5,11.93
			c15.22,2.73,28.01-0.82,38.92-9.47c2.86-2.27,5.46-4.87,7.74-7.73c1.46-1.84,2.78-3.78,3.95-5.8c1.03-1.77,2.37-4.3,3.16-6.52
			C91.12,66.31,88.65,67.88,86.94,68.77z M35.31,68.07c-0.78,2.61-2.14,4.8-4,6.33c-2.39,1.96-5.56,2.67-8.6,2.53
			C12.06,76.42,5.99,66.47,3.48,56.73c-0.6-2.34-1.14-6.75-1.35-10.14c2.62-0.58,6.93-0.89,7.65-0.88
			c8.45,0.09,13.11,2.32,18.37,5.99C33.92,55.71,36.99,62.49,35.31,68.07z"/>
		<path id="head_2_" class="st2" d="M26.01,56.89c-4.65-1.16-9.35,1.67-10.51,6.31c-1.16,4.64,1.67,9.35,6.33,10.5
			c4.64,1.16,9.35-1.67,10.5-6.31C33.49,62.75,30.66,58.05,26.01,56.89z"/>
	</g>
</g>
</svg>
